<svg width="19" height="18" viewBox="0 0 19 18" fill="none" xmlns="http://www.w3.org/2000/svg">
<path fill-rule="evenodd" clip-rule="evenodd" d="M18.75 9C18.7501 12.5929 16.6133 15.8416 13.3142 17.2644C10.0151 18.6872 6.18578 18.0116 3.57281 15.5456C3.27147 15.2609 3.25804 14.7857 3.54281 14.4844C3.82758 14.183 4.30272 14.1696 4.60406 14.4544C7.59647 17.2774 12.3045 17.1631 15.1563 14.1981C18.0081 11.233 17.9391 6.52414 15.0017 3.64386C12.0644 0.763585 7.35504 0.787097 4.44656 3.69656C4.11562 4.03125 3.80438 4.36031 3.50156 4.6875L5.03062 6.21937C5.24537 6.43388 5.30965 6.75668 5.19347 7.03709C5.07728 7.3175 4.80353 7.50024 4.5 7.5H0.75C0.335786 7.5 0 7.16421 0 6.75V3C-0.000238868 2.69647 0.182495 2.42272 0.462907 2.30653C0.743319 2.19035 1.06612 2.25463 1.28063 2.46938L2.4375 3.62813C2.73937 3.30094 3.05062 2.97187 3.38062 2.63906C5.95371 0.0615952 9.82655 -0.711063 13.1917 0.681682C16.5569 2.07443 18.751 5.35801 18.75 9V9ZM9.75 3.75C9.33579 3.75 9 4.08579 9 4.5V9C8.99992 9.26337 9.13799 9.50749 9.36375 9.64312L13.1138 11.8931C13.4689 12.1064 13.9298 11.9914 14.1431 11.6362C14.3564 11.2811 14.2414 10.8202 13.8862 10.6069L10.5 8.57531V4.5C10.5 4.08579 10.1642 3.75 9.75 3.75V3.75Z" fill="#177008"/>
</svg>
