<svg width="25" height="24" viewBox="0 0 25 24" fill="none" xmlns="http://www.w3.org/2000/svg">
<g clip-path="url(#clip0_341_116)">
<path fill-rule="evenodd" clip-rule="evenodd" d="M13.5 7.5V11.5753L16.8862 13.6069C17.2414 13.8202 17.3564 14.2811 17.1431 14.6362C16.9298 14.9914 16.4689 15.1064 16.1138 14.8931L12.3638 12.6431C12.138 12.5075 11.9999 12.2634 12 12V7.5C12 7.08579 12.3358 6.75 12.75 6.75C13.1642 6.75 13.5 7.08579 13.5 7.5ZM12.75 3C10.3602 2.99405 8.0674 3.94433 6.3825 5.63906C5.70094 6.32906 5.09531 6.99281 4.5 7.6875V6C4.5 5.58579 4.16421 5.25 3.75 5.25C3.33579 5.25 3 5.58579 3 6V9.75C3 10.1642 3.33579 10.5 3.75 10.5H7.5C7.91421 10.5 8.25 10.1642 8.25 9.75C8.25 9.33579 7.91421 9 7.5 9H5.34375C6.01406 8.21062 6.68156 7.46719 7.44281 6.69656C10.3518 3.78759 15.0611 3.76489 17.998 6.64568C20.9349 9.52648 21.003 14.2354 18.1507 17.1999C15.2984 20.1644 10.5903 20.278 7.59844 17.4544C7.4035 17.2702 7.1251 17.2039 6.8681 17.2806C6.6111 17.3574 6.41454 17.5653 6.35247 17.8263C6.29041 18.0872 6.37225 18.3614 6.56719 18.5456C9.50577 21.3187 13.9322 21.7935 17.3922 19.7069C20.8521 17.6202 22.4973 13.4835 21.4156 9.59055C20.3339 5.69759 16.7904 3.00263 12.75 3Z" fill="#638763"/>
</g>
<defs>
<clipPath id="clip0_341_116">
<rect width="24" height="24" fill="white" transform="translate(0.75)"/>
</clipPath>
</defs>
</svg>
