<svg width="25" height="24" viewBox="0 0 25 24" fill="none" xmlns="http://www.w3.org/2000/svg">
<g clip-path="url(#clip0_341_102)">
<path fill-rule="evenodd" clip-rule="evenodd" d="M21.2653 9.72844L13.7653 2.65219C13.7616 2.64899 13.7582 2.64554 13.755 2.64188C13.1828 2.1215 12.3088 2.1215 11.7366 2.64188L11.7262 2.65219L4.23469 9.72844C3.92573 10.0125 3.74994 10.4131 3.75 10.8328V19.5C3.75 20.3284 4.42157 21 5.25 21H9.75C10.5784 21 11.25 20.3284 11.25 19.5V15H14.25V19.5C14.25 20.3284 14.9216 21 15.75 21H20.25C21.0784 21 21.75 20.3284 21.75 19.5V10.8328C21.7501 10.4131 21.5743 10.0125 21.2653 9.72844ZM20.25 19.5H15.75V15C15.75 14.1716 15.0784 13.5 14.25 13.5H11.25C10.4216 13.5 9.75 14.1716 9.75 15V19.5H5.25V10.8328L5.26031 10.8234L12.75 3.75L20.2406 10.8216L20.2509 10.8309L20.25 19.5Z" fill="#638763"/>
</g>
<defs>
<clipPath id="clip0_341_102">
<rect width="24" height="24" fill="white" transform="translate(0.75)"/>
</clipPath>
</defs>
</svg>
