<svg width="25" height="24" viewBox="0 0 25 24" fill="none" xmlns="http://www.w3.org/2000/svg">
<g clip-path="url(#clip0_341_220)">
<path fill-rule="evenodd" clip-rule="evenodd" d="M21.8988 19.875C20.4709 17.4066 18.2706 15.6366 15.7028 14.7975C18.3135 13.2433 19.5641 10.1364 18.7582 7.2069C17.9522 4.27741 15.2883 2.24745 12.25 2.24745C9.21167 2.24745 6.54779 4.27741 5.74182 7.2069C4.93585 10.1364 6.18645 13.2433 8.79719 14.7975C6.22938 15.6356 4.02906 17.4056 2.60125 19.875C2.4587 20.1074 2.45353 20.3989 2.58773 20.6363C2.72194 20.8736 2.97438 21.0194 3.24702 21.0171C3.51967 21.0147 3.76958 20.8646 3.89969 20.625C5.66594 17.5725 8.78781 15.75 12.25 15.75C15.7122 15.75 18.8341 17.5725 20.6003 20.625C20.7304 20.8646 20.9803 21.0147 21.253 21.0171C21.5256 21.0194 21.7781 20.8736 21.9123 20.6363C22.0465 20.3989 22.0413 20.1074 21.8988 19.875ZM7 9C7 6.1005 9.3505 3.75 12.25 3.75C15.1495 3.75 17.5 6.1005 17.5 9C17.5 11.8995 15.1495 14.25 12.25 14.25C9.35179 14.2469 7.0031 11.8982 7 9Z" fill="#638763"/>
</g>
<defs>
<clipPath id="clip0_341_220">
<rect width="24" height="24" fill="white" transform="translate(0.25)"/>
</clipPath>
</defs>
</svg>
