<svg width="20" height="19" viewBox="0 0 20 19" fill="none" xmlns="http://www.w3.org/2000/svg">
<path fill-rule="evenodd" clip-rule="evenodd" d="M19.8997 18.625C19.7657 18.8571 19.518 19.0001 19.25 19H1.25C0.982188 18.9997 0.734845 18.8567 0.601058 18.6247C0.467271 18.3927 0.467344 18.1069 0.60125 17.875C2.02906 15.4066 4.22938 13.6366 6.79719 12.7975C4.18645 11.2433 2.93585 8.13638 3.74182 5.2069C4.54779 2.27741 7.21167 0.247449 10.25 0.247449C13.2883 0.247449 15.9522 2.27741 16.7582 5.2069C17.5642 8.13638 16.3135 11.2433 13.7028 12.7975C16.2706 13.6366 18.4709 15.4066 19.8988 17.875C20.033 18.1069 20.0334 18.3928 19.8997 18.625V18.625Z" fill="#177008"/>
</svg>
